<?xml version="1.0" standalone="no"?>
<!DOCTYPE svg PUBLIC "-//W3C//DTD SVG 20010904//EN"
 "http://www.w3.org/TR/2001/REC-SVG-20010904/DTD/svg10.dtd">
<svg version="1.0" xmlns="http://www.w3.org/2000/svg"
 width="512.000000pt" height="512.000000pt" viewBox="0 0 512.000000 512.000000"
 preserveAspectRatio="xMidYMid meet">

<g transform="translate(0.000000,512.000000) scale(0.100000,-0.100000)"
fill="#000000" stroke="none">
<path d="M3682 4995 c-56 -24 -91 -54 -119 -102 -25 -43 -26 -53 -34 -252 -14
-336 -47 -574 -94 -677 l-23 -52 -98 -4 c-119 -5 -170 -27 -211 -90 l-28 -41
-3 -211 c-4 -229 2 -265 45 -317 49 -58 89 -69 259 -69 l152 0 6 -142 c3 -79
11 -341 16 -583 6 -242 13 -464 16 -493 7 -68 73 -200 120 -241 76 -67 163
-25 229 113 18 39 36 87 39 106 5 29 36 1070 36 1202 l0 38 153 0 c143 0 156
2 203 25 56 28 93 76 105 138 12 62 11 348 -2 407 -12 57 -53 111 -103 137
-20 11 -68 19 -130 22 -99 6 -100 6 -118 37 -49 84 -83 311 -99 648 -12 266
-19 297 -84 354 -68 60 -161 78 -233 47z"/>
<path d="M962 3330 c-51 -31 -66 -93 -37 -150 17 -32 44 -50 89 -59 36 -8 54
-51 55 -129 1 -74 -25 -120 -109 -188 -111 -89 -183 -195 -231 -339 l-24 -70
-3 -1045 c-2 -953 -1 -1049 14 -1089 21 -55 66 -106 118 -134 l41 -22 680 0
c644 0 682 1 715 19 49 26 88 64 113 111 l22 40 0 1060 0 1060 -27 80 c-47
137 -122 245 -235 335 -76 61 -103 109 -102 182 1 78 19 121 55 129 88 18 128
94 89 169 -32 61 -20 60 -632 60 -540 0 -559 -1 -591 -20z m1024 -1147 c67
-48 65 -19 62 -772 -3 -669 -3 -680 -24 -707 -11 -15 -33 -37 -48 -48 -27 -20
-39 -21 -421 -21 -382 0 -394 1 -421 21 -15 11 -37 33 -48 48 -21 27 -21 36
-21 719 l0 692 24 34 c43 61 46 61 476 58 386 -2 390 -2 421 -24z"/>
<path d="M3690 1381 c-80 -84 -213 -310 -239 -406 -38 -139 28 -287 160 -360
49 -27 62 -30 149 -30 80 0 102 4 138 23 151 81 215 234 162 392 -36 108 -186
352 -247 400 -41 32 -80 26 -123 -19z"/>
</g>
</svg>
