<?xml version="1.0" standalone="no"?>
<!DOCTYPE svg PUBLIC "-//W3C//DTD SVG 20010904//EN"
 "http://www.w3.org/TR/2001/REC-SVG-20010904/DTD/svg10.dtd">
<svg version="1.0" xmlns="http://www.w3.org/2000/svg"
 width="512.000000pt" height="512.000000pt" viewBox="0 0 512.000000 512.000000"
 preserveAspectRatio="xMidYMid meet">
<metadata>
Created by potrace 1.16, written by Peter Selinger 2001-2019
</metadata>
<g transform="translate(0.000000,512.000000) scale(0.100000,-0.100000)"
fill="#000000" stroke="none">
<path d="M852 4993 c-19 -9 -44 -32 -58 -52 -23 -35 -24 -41 -24 -228 l0 -193
-22 0 c-34 0 -85 -35 -103 -69 -12 -24 -15 -69 -15 -231 l0 -200 730 0 730 0
0 210 0 209 -31 35 c-19 22 -43 38 -65 42 l-34 6 0 177 c0 163 -2 180 -22 221
-13 25 -38 55 -57 67 l-34 23 -481 0 c-425 0 -485 -2 -514 -17z m573 -168 c56
-55 15 -155 -62 -155 -25 0 -43 8 -64 29 -37 37 -38 79 -3 120 34 41 92 44
129 6z"/>
<path d="M2809 4504 c-20 -21 -23 -34 -22 -87 3 -129 14 -206 35 -232 l19 -25
905 0 c580 0 912 4 924 10 29 16 41 70 43 200 2 117 1 122 -22 141 -23 18 -50
19 -940 19 l-918 0 -24 -26z"/>
<path d="M2890 4044 c0 -54 131 -2942 135 -2974 13 -109 82 -220 155 -250 l30
-12 0 -305 c0 -338 2 -352 63 -388 30 -19 56 -20 437 -23 481 -4 502 -2 547
43 l33 33 0 321 c0 263 2 321 13 321 24 0 95 58 122 99 15 21 33 61 41 88 14
42 59 984 146 2981 l3 72 -862 0 c-475 0 -863 -3 -863 -6z m904 -826 c34 -48
10 -138 -36 -138 -37 0 -58 29 -58 77 0 24 5 53 10 64 15 27 64 25 84 -3z
m-372 -168 c42 -45 45 -56 22 -88 -23 -34 -61 -28 -100 15 -39 43 -43 75 -12
97 34 24 47 20 90 -24z m461 -113 c119 -54 187 -152 195 -280 3 -57 0 -84 -18
-129 -28 -75 -96 -150 -168 -185 -49 -24 -69 -28 -142 -28 -78 0 -90 3 -148
34 -113 61 -175 164 -175 286 0 117 50 210 145 276 94 63 208 73 311 26z
m-595 -269 c17 -17 15 -63 -3 -78 -22 -18 -87 -22 -115 -8 -28 15 -37 47 -20
77 9 18 20 21 68 21 32 0 63 -5 70 -12z m161 -380 c14 -25 14 -29 -5 -54 -11
-15 -33 -37 -48 -48 -25 -19 -29 -19 -54 -5 -42 23 -40 55 5 101 45 46 79 48
102 6z m715 -8 c41 -45 40 -44 25 -73 -25 -48 -47 -48 -99 -1 -43 39 -50 67
-23 96 26 29 57 22 97 -22z m-374 -120 c29 -29 27 -94 -4 -125 -43 -43 -86
-10 -86 64 0 73 47 104 90 61z m141 -1609 c21 -17 24 -28 24 -86 0 -101 -7
-105 -203 -105 -146 0 -157 1 -179 22 -19 18 -23 32 -23 84 0 56 3 65 26 83
24 19 40 21 179 21 136 0 155 -2 176 -19z"/>
<path d="M572 3845 c-76 -81 -127 -170 -152 -270 -20 -77 -20 -112 -20 -1684
l0 -1606 24 -50 c25 -54 70 -98 126 -124 31 -14 121 -16 805 -16 627 0 777 3
809 14 51 18 115 76 137 126 18 38 19 114 19 1659 0 1793 5 1668 -66 1808 -20
39 -62 97 -100 138 l-66 70 -728 0 -728 0 -60 -65z m822 -1028 c11 -8 20 -31
23 -60 7 -57 -15 -97 -52 -97 -38 0 -55 25 -55 82 0 75 38 109 84 75z m-419
-198 c44 -39 54 -73 30 -99 -27 -29 -55 -24 -97 17 -42 41 -51 85 -20 102 29
17 50 12 87 -20z m870 11 c24 -26 14 -60 -30 -99 -42 -37 -78 -40 -99 -9 -22
31 -21 33 25 83 46 49 75 57 104 25z m-345 -133 c78 -29 178 -130 210 -212 31
-80 31 -187 0 -267 -28 -76 -105 -160 -184 -201 -57 -29 -68 -32 -161 -32 -88
0 -107 3 -157 27 -79 37 -142 98 -181 177 -29 60 -32 74 -32 161 0 82 4 103
27 152 86 185 285 266 478 195z m-675 -317 c20 -17 19 -64 -2 -81 -9 -8 -37
-14 -63 -14 -95 0 -122 75 -40 108 22 9 89 1 105 -13z m1189 10 c30 -11 43
-49 27 -79 -22 -40 -131 -39 -152 1 -33 61 44 109 125 78z m-1012 -427 c27
-24 22 -48 -18 -93 -43 -47 -83 -54 -108 -18 -22 31 -21 33 25 83 44 48 71 55
101 28z m822 -23 c40 -45 43 -56 20 -88 -24 -35 -56 -28 -103 23 -46 50 -47
52 -25 83 25 36 65 29 108 -18z m-420 -142 c18 -25 21 -74 6 -112 -12 -34 -54
-44 -80 -21 -26 23 -28 115 -4 139 22 23 60 20 78 -6z"/>
</g>
</svg>
