<?xml version="1.0" standalone="no"?>
<!DOCTYPE svg PUBLIC "-//W3C//DTD SVG 20010904//EN"
 "http://www.w3.org/TR/2001/REC-SVG-20010904/DTD/svg10.dtd">
<svg version="1.0" xmlns="http://www.w3.org/2000/svg"
 width="250px" height="250px" viewBox="0 0 512.000000 512.000000"
 preserveAspectRatio="xMidYMid meet">
<metadata>
Created by potrace 1.16, written by Peter Selinger 2001-2019
</metadata>
<g transform="translate(0.000000,512.000000) scale(0.100000,-0.100000)"
fill="#000000" stroke="none">
<path d="M620 4511 c-68 -21 -112 -57 -146 -121 -17 -31 -19 -65 -22 -327 l-4
-293 159 0 159 0 22 39 c44 78 132 139 230 160 111 23 276 -27 415 -125 l47
-34 0 355 0 355 -417 -1 c-230 0 -429 -4 -443 -8z"/>
<path d="M1690 4159 l0 -361 23 16 c72 53 139 93 190 114 79 32 194 55 237 47
114 -20 208 -79 255 -160 l27 -45 1125 0 1125 0 -4 293 c-3 262 -5 296 -22
327 -26 49 -55 79 -101 103 l-40 22 -1407 3 -1408 2 0 -361z"/>
<path d="M2032 3855 c-72 -16 -172 -59 -172 -74 0 -8 71 -11 215 -11 136 0
215 4 215 10 0 18 -81 69 -119 75 -20 4 -45 8 -56 10 -11 1 -48 -3 -83 -10z"/>
<path d="M980 3845 c-37 -17 -80 -53 -80 -67 0 -4 97 -8 215 -8 118 0 215 4
215 9 0 4 -33 23 -72 42 -61 28 -87 34 -158 36 -62 3 -95 -1 -120 -12z"/>
<path d="M450 2015 l0 -1555 -190 0 -190 0 -16 -26 c-13 -19 -15 -32 -8 -52
17 -49 36 -52 356 -52 l297 0 3 293 c3 281 4 294 25 334 20 36 23 58 23 144 0
117 14 157 65 189 31 19 49 20 349 20 l316 0 0 978 -1 977 -105 -110 c-135
-142 -214 -247 -272 -364 -51 -103 -78 -129 -111 -111 -39 20 -37 54 12 153
59 121 123 210 254 351 114 124 223 255 223 269 0 5 -21 -7 -47 -26 -155 -112
-347 -155 -477 -107 -75 29 -143 91 -177 165 -16 33 -29 66 -29 73 0 9 -37 12
-150 12 l-150 0 0 -1555z"/>
<path d="M860 3563 c1 -24 51 -91 88 -118 41 -28 49 -30 135 -29 71 0 105 5
150 23 64 25 179 99 185 119 3 9 -57 12 -277 12 -155 0 -281 -3 -281 -7z"/>
<path d="M1785 3541 c33 -35 144 -96 212 -116 117 -36 245 -5 297 71 52 77 62
74 -256 74 l-282 0 29 -29z"/>
<path d="M2427 3525 c-34 -98 -114 -178 -213 -212 -34 -11 -70 -14 -133 -11
-104 6 -192 38 -298 108 -40 27 -73 44 -73 40 0 -16 73 -105 180 -220 181
-196 261 -308 316 -444 l28 -68 -26 -23 c-43 -37 -64 -24 -111 74 -72 145
-135 229 -326 431 l-80 85 -1 -987 0 -987 184 -3 c181 -3 185 -3 211 -28 47
-44 55 -71 55 -184 0 -91 3 -110 23 -143 21 -37 22 -48 25 -331 l4 -292 169 0
169 0 0 -44 c0 -53 14 -94 38 -112 13 -10 87 -13 318 -14 l301 0 21 23 c18 19
22 35 22 85 l0 62 164 0 165 0 3 373 3 373 37 75 c20 40 50 87 66 102 28 27
29 31 20 70 -14 59 -3 180 18 217 18 30 85 70 116 70 9 0 19 8 22 18 11 35 26
159 26 222 0 78 21 125 69 157 69 46 166 19 203 -57 10 -22 21 -83 27 -165 14
-169 15 -172 59 -180 51 -9 98 -48 112 -91 8 -24 11 -73 8 -138 l-5 -101 38
-44 c21 -23 49 -68 61 -100 22 -54 23 -67 26 -429 l3 -372 269 0 c151 0 280 4
294 10 37 14 52 50 34 86 l-13 29 -193 3 -192 2 0 1555 0 1555 -1114 0 -1114
0 -15 -45z m1118 -1031 c13 -13 15 -28 9 -73 -12 -99 50 -91 -668 -91 -347 0
-637 4 -645 9 -13 8 -30 73 -31 118 -1 55 -23 53 675 53 581 0 645 -2 660 -16z
m-1205 -306 c0 -33 80 -1371 86 -1428 5 -55 11 -69 39 -97 l33 -33 379 0 c403
0 408 1 445 50 16 22 22 97 58 695 22 369 42 705 46 748 l6 77 55 0 55 0 -6
-77 c-4 -43 -24 -379 -46 -748 -30 -504 -44 -680 -55 -712 -20 -53 -91 -119
-144 -133 -28 -7 -168 -10 -430 -8 l-388 3 -48 30 c-32 20 -57 47 -77 81 l-28
51 -45 744 c-25 409 -45 750 -45 757 0 8 18 12 55 12 37 0 55 -4 55 -12z m657
-413 c212 -89 245 -386 58 -515 -154 -106 -351 -55 -434 112 -101 201 59 442
281 423 32 -3 74 -12 95 -20z m3 -1364 c15 -29 12 -72 -7 -93 -13 -15 -32 -18
-114 -18 -112 0 -129 9 -129 69 0 56 11 61 132 61 96 0 108 -2 118 -19z"/>
<path d="M3815 1300 c6 -37 4 -42 -43 -92 -27 -29 -60 -73 -73 -98 l-24 -45
-3 -429 c-2 -314 0 -438 9 -458 22 -55 42 -58 336 -58 249 0 270 1 300 20 18
11 35 30 38 42 3 13 5 219 3 458 -3 493 2 462 -90 556 -50 52 -59 77 -44 122
l7 22 -211 0 -212 0 7 -40z m286 -415 c78 -41 112 -152 70 -233 -47 -92 -153
-122 -243 -69 -80 46 -108 138 -69 223 41 90 151 126 242 79z"/>
<path d="M863 950 c-50 -20 -53 -44 -53 -390 0 -349 3 -370 56 -390 41 -16
1133 -13 1164 3 14 7 30 28 37 47 15 45 18 618 2 672 -19 70 -1 68 -626 67
-307 0 -568 -4 -580 -9z m695 -213 c92 -60 124 -183 72 -277 -74 -132 -258
-148 -351 -30 -84 105 -50 253 72 318 61 32 149 28 207 -11z"/>
</g>
</svg>
