<svg xmlns="http://www.w3.org/2000/svg" width="250" height="250" version="1.0" viewBox="0 0 512 512"><path d="M62 60.9C55.2 63 50.8 66.6 47.4 73c-1.7 3.1-1.9 6.5-2.2 32.7l-.4 29.3h31.8l2.2-3.9c4.4-7.8 13.2-13.9 23-16 11.1-2.3 27.6 2.7 41.5 12.5l4.7 3.4V60l-41.7.1c-23 0-42.9.4-44.3.8M169 96.1v36.1l2.3-1.6c7.2-5.3 13.9-9.3 19-11.4 7.9-3.2 19.4-5.5 23.7-4.7 11.4 2 20.8 7.9 25.5 16l2.7 4.5h225l-.4-29.3c-.3-26.2-.5-29.6-2.2-32.7-2.6-4.9-5.5-7.9-10.1-10.3l-4-2.2-140.7-.3L169 60z"/><path d="M203.2 126.5c-7.2 1.6-17.2 5.9-17.2 7.4 0 .8 7.1 1.1 21.5 1.1 13.6 0 21.5-.4 21.5-1 0-1.8-8.1-6.9-11.9-7.5-2-.4-4.5-.8-5.6-1-1.1-.1-4.8.3-8.3 1M98 127.5c-3.7 1.7-8 5.3-8 6.7 0 .4 9.7.8 21.5.8s21.5-.4 21.5-.9c0-.4-3.3-2.3-7.2-4.2-6.1-2.8-8.7-3.4-15.8-3.6-6.2-.3-9.5.1-12 1.2M45 310.5V466H7l-1.6 2.6c-1.3 1.9-1.5 3.2-.8 5.2 1.7 4.9 3.6 5.2 35.6 5.2h29.7l.3-29.3c.3-28.1.4-29.4 2.5-33.4 2-3.6 2.3-5.8 2.3-14.4 0-11.7 1.4-15.7 6.5-18.9 3.1-1.9 4.9-2 34.9-2H148v-97.8l-.1-97.7-10.5 11c-13.5 14.2-21.4 24.7-27.2 36.4-5.1 10.3-7.8 12.9-11.1 11.1-3.9-2-3.7-5.4 1.2-15.3 5.9-12.1 12.3-21 25.4-35.1 11.4-12.4 22.3-25.5 22.3-26.9 0-.5-2.1.7-4.7 2.6-15.5 11.2-34.7 15.5-47.7 10.7-7.5-2.9-14.3-9.1-17.7-16.5-1.6-3.3-2.9-6.6-2.9-7.3 0-.9-3.7-1.2-15-1.2H45z"/><path d="M86 155.7c.1 2.4 5.1 9.1 8.8 11.8 4.1 2.8 4.9 3 13.5 2.9 7.1 0 10.5-.5 15-2.3 6.4-2.5 17.9-9.9 18.5-11.9.3-.9-5.7-1.2-27.7-1.2-15.5 0-28.1.3-28.1.7M178.5 157.9c3.3 3.5 14.4 9.6 21.2 11.6 11.7 3.6 24.5.5 29.7-7.1 5.2-7.7 6.2-7.4-25.6-7.4h-28.2z"/><path d="M242.7 159.5c-3.4 9.8-11.4 17.8-21.3 21.2-3.4 1.1-7 1.4-13.3 1.1-10.4-.6-19.2-3.8-29.8-10.8-4-2.7-7.3-4.4-7.3-4 0 1.6 7.3 10.5 18 22 18.1 19.6 26.1 30.8 31.6 44.4l2.8 6.8-2.6 2.3c-4.3 3.7-6.4 2.4-11.1-7.4-7.2-14.5-13.5-22.9-32.6-43.1l-8-8.5-.1 98.7v98.7l18.4.3c18.1.3 18.5.3 21.1 2.8 4.7 4.4 5.5 7.1 5.5 18.4 0 9.1.3 11 2.3 14.3 2.1 3.7 2.2 4.8 2.5 33.1l.4 29.2H253v4.4c0 5.3 1.4 9.4 3.8 11.2 1.3 1 8.7 1.3 31.8 1.4h30.1l2.1-2.3c1.8-1.9 2.2-3.5 2.2-8.5V479h32.9l.3-37.3.3-37.3 3.7-7.5c2-4 5-8.7 6.6-10.2 2.8-2.7 2.9-3.1 2-7-1.4-5.9-.3-18 1.8-21.7 1.8-3 8.5-7 11.6-7 .9 0 1.9-.8 2.2-1.8 1.1-3.5 2.6-15.9 2.6-22.2 0-7.8 2.1-12.5 6.9-15.7 6.9-4.6 16.6-1.9 20.3 5.7 1 2.2 2.1 8.3 2.7 16.5 1.4 16.9 1.5 17.2 5.9 18 5.1.9 9.8 4.8 11.2 9.1.8 2.4 1.1 7.3.8 13.8l-.5 10.1 3.8 4.4c2.1 2.3 4.9 6.8 6.1 10 2.2 5.4 2.3 6.7 2.6 42.9l.3 37.2H474c15.1 0 28-.4 29.4-1 3.7-1.4 5.2-5 3.4-8.6l-1.3-2.9-19.3-.3-19.2-.2V155H244.2zm111.8 103.1c1.3 1.3 1.5 2.8.9 7.3-1.2 9.9 5 9.1-66.8 9.1-34.7 0-63.7-.4-64.5-.9-1.3-.8-3-7.3-3.1-11.8-.1-5.5-2.3-5.3 67.5-5.3 58.1 0 64.5.2 66 1.6M234 293.2c0 3.3 8 137.1 8.6 142.8.5 5.5 1.1 6.9 3.9 9.7l3.3 3.3h37.9c40.3 0 40.8-.1 44.5-5 1.6-2.2 2.2-9.7 5.8-69.5 2.2-36.9 4.2-70.5 4.6-74.8l.6-7.7h11l-.6 7.7c-.4 4.3-2.4 37.9-4.6 74.8-3 50.4-4.4 68-5.5 71.2-2 5.3-9.1 11.9-14.4 13.3-2.8.7-16.8 1-43 .8l-38.8-.3-4.8-3c-3.2-2-5.7-4.7-7.7-8.1l-2.8-5.1-4.5-74.4c-2.5-40.9-4.5-75-4.5-75.7 0-.8 1.8-1.2 5.5-1.2s5.5.4 5.5 1.2m65.7 41.3c21.2 8.9 24.5 38.6 5.8 51.5-15.4 10.6-35.1 5.5-43.4-11.2-10.1-20.1 5.9-44.2 28.1-42.3 3.2.3 7.4 1.2 9.5 2m.3 136.4c1.5 2.9 1.2 7.2-.7 9.3-1.3 1.5-3.2 1.8-11.4 1.8-11.2 0-12.9-.9-12.9-6.9 0-5.6 1.1-6.1 13.2-6.1 9.6 0 10.8.2 11.8 1.9"/><path d="M381.5 382c.6 3.7.4 4.2-4.3 9.2-2.7 2.9-6 7.3-7.3 9.8l-2.4 4.5-.3 42.9c-.2 31.4 0 43.8.9 45.8 2.2 5.5 4.2 5.8 33.6 5.8 24.9 0 27-.1 30-2 1.8-1.1 3.5-3 3.8-4.2.3-1.3.5-21.9.3-45.8-.3-49.3.2-46.2-9-55.6-5-5.2-5.9-7.7-4.4-12.2l.7-2.2h-42.3zm28.6 41.5c7.8 4.1 11.2 15.2 7 23.3-4.7 9.2-15.3 12.2-24.3 6.9-8-4.6-10.8-13.8-6.9-22.3 4.1-9 15.1-12.6 24.2-7.9M86.3 417c-5 2-5.3 4.4-5.3 39 0 34.9.3 37 5.6 39 4.1 1.6 113.3 1.3 116.4-.3 1.4-.7 3-2.8 3.7-4.7 1.5-4.5 1.8-61.8.2-67.2-1.9-7-.1-6.8-62.6-6.7-30.7 0-56.8.4-58 .9m69.5 21.3c9.2 6 12.4 18.3 7.2 27.7-7.4 13.2-25.8 14.8-35.1 3-8.4-10.5-5-25.3 7.2-31.8 6.1-3.2 14.9-2.8 20.7 1.1"/></svg>