<?xml version="1.0" standalone="no"?>
<!DOCTYPE svg PUBLIC "-//W3C//DTD SVG 20010904//EN"
 "http://www.w3.org/TR/2001/REC-SVG-20010904/DTD/svg10.dtd">
<svg version="1.0" xmlns="http://www.w3.org/2000/svg"
 width="512.000000pt" height="512.000000pt" viewBox="0 0 512.000000 512.000000"
 preserveAspectRatio="xMidYMid meet">
<metadata>
Created by potrace 1.16, written by Peter Selinger 2001-2019
</metadata>
<g transform="translate(0.000000,512.000000) scale(0.100000,-0.100000)"
fill="#000000" stroke="none">
<path d="M2532 3880 c-184 -66 -550 -326 -922 -655 -186 -165 -570 -549 -735
-735 -373 -422 -651 -829 -671 -983 l-7 -48 226 -227 c224 -224 227 -227 267
-226 106 3 398 198 744 496 l81 71 5 -444 5 -444 29 -53 c36 -65 92 -108 160
-122 36 -8 511 -10 1626 -8 l1575 3 41 22 c53 28 107 91 122 142 9 27 12 192
12 557 l0 519 -24 51 c-30 64 -86 111 -157 131 l-57 16 -4 104 -4 105 -37 34
c-27 25 -46 34 -71 34 -31 0 -36 5 -62 56 -63 125 -134 176 -304 219 -237 60
-375 140 -592 344 -80 74 -104 91 -129 91 -59 0 -97 -28 -155 -115 -121 -185
-245 -254 -524 -294 -82 -12 -533 -52 -537 -48 -1 2 43 55 99 118 329 373 556
702 560 813 1 36 -8 46 -228 267 -251 251 -238 243 -332 209z m312 -682 c-133
-192 -300 -397 -510 -628 -122 -134 -123 -135 -194 -158 -39 -12 -92 -36 -116
-53 -42 -29 -84 -90 -84 -124 0 -11 -11 -15 -48 -15 -87 0 -122 -46 -122 -163
0 -72 -1 -75 -32 -99 -18 -14 -51 -34 -73 -46 -46 -23 -96 -73 -118 -117 -30
-59 -449 -409 -666 -555 l-65 -43 24 39 c373 620 1312 1570 1961 1983 52 33
95 60 97 61 2 0 -22 -37 -54 -82z m2116 -1978 l0 -260 -1655 0 -1655 0 0 260
0 260 1655 0 1655 0 0 -260z"/>
</g>
</svg>
