<svg xmlns="http://www.w3.org/2000/svg" width="682.667" height="682.667" version="1.0" viewBox="0 0 512 512"><path d="M253.2 124c-18.4 6.6-55 32.6-92.2 65.5-18.6 16.5-57 54.9-73.5 73.5-37.3 42.2-65.1 82.9-67.1 98.3l-.7 4.8 22.6 22.7C64.7 411.2 65 411.5 69 411.4c10.6-.3 39.8-19.8 74.4-49.6l8.1-7.1.5 44.4.5 44.4 2.9 5.3c3.6 6.5 9.2 10.8 16 12.2 3.6.8 51.1 1 162.6.8l157.5-.3 4.1-2.2c5.3-2.8 10.7-9.1 12.2-14.2.9-2.7 1.2-19.2 1.2-55.7v-51.9l-2.4-5.1c-3-6.4-8.6-11.1-15.7-13.1l-5.7-1.6-.4-10.4-.4-10.5-3.7-3.4c-2.7-2.5-4.6-3.4-7.1-3.4-3.1 0-3.6-.5-6.2-5.6-6.3-12.5-13.4-17.6-30.4-21.9-23.7-6-37.5-14-59.2-34.4-8-7.4-10.4-9.1-12.9-9.1-5.9 0-9.7 2.8-15.5 11.5-12.1 18.5-24.5 25.4-52.4 29.4-8.2 1.2-53.3 5.2-53.7 4.8-.1-.2 4.3-5.5 9.9-11.8 32.9-37.3 55.6-70.2 56-81.3.1-3.6-.8-4.6-22.8-26.7-25.1-25.1-23.8-24.3-33.2-20.9m31.2 68.2c-13.3 19.2-30 39.7-51 62.8-12.2 13.4-12.3 13.5-19.4 15.8-3.9 1.2-9.2 3.6-11.6 5.3-4.2 2.9-8.4 9-8.4 12.4 0 1.1-1.1 1.5-4.8 1.5-8.7 0-12.2 4.6-12.2 16.3 0 7.2-.1 7.5-3.2 9.9-1.8 1.4-5.1 3.4-7.3 4.6-4.6 2.3-9.6 7.3-11.8 11.7-3 5.9-44.9 40.9-66.6 55.5l-6.5 4.3 2.4-3.9c37.3-62 131.2-157 196.1-198.3 5.2-3.3 9.5-6 9.7-6.1.2 0-2.2 3.7-5.4 8.2M496 390v26H165v-52h331z"/></svg>