<?xml version="1.0" standalone="no"?>
<!DOCTYPE svg PUBLIC "-//W3C//DTD SVG 20010904//EN"
 "http://www.w3.org/TR/2001/REC-SVG-20010904/DTD/svg10.dtd">
<svg version="1.0" xmlns="http://www.w3.org/2000/svg"
 width="512.000000pt" height="512.000000pt" viewBox="0 0 512.000000 512.000000"
 preserveAspectRatio="xMidYMid meet">
<metadata>
Created by potrace 1.16, written by Peter Selinger 2001-2019
</metadata>
<g transform="translate(0.000000,512.000000) scale(0.100000,-0.100000)"
fill="#000000" stroke="none">
<path d="M4423 4970 c-40 -24 -99 -99 -208 -260 -171 -256 -248 -440 -247
-590 2 -385 408 -633 759 -465 135 65 234 186 278 339 23 80 17 217 -15 306
-55 155 -215 427 -355 603 -68 86 -143 109 -212 67z m332 -624 c13 -19 13 -28
4 -47 -15 -33 -261 -251 -301 -267 -48 -20 -92 -7 -143 42 -47 45 -56 74 -29
100 24 24 57 19 89 -14 16 -16 34 -30 40 -30 6 0 70 54 143 120 142 128 168
141 197 96z"/>
<path d="M853 4620 c-49 -29 -63 -66 -63 -165 l0 -85 519 0 519 0 6 23 c11 42
6 126 -10 167 -10 23 -29 48 -49 60 -31 19 -48 20 -461 20 -408 0 -431 -1
-461 -20z"/>
<path d="M796 4218 c3 -57 25 -791 49 -1633 24 -841 46 -1558 49 -1593 7 -112
78 -181 187 -182 l46 0 6 -112 c3 -62 18 -167 32 -233 15 -66 33 -163 41 -215
18 -120 26 -138 70 -156 28 -12 43 -13 70 -4 41 14 59 45 68 121 3 31 21 134
41 230 19 96 37 218 41 271 l7 98 43 0 c54 0 91 14 128 48 59 56 54 -36 107
1716 27 892 49 1649 49 1684 l0 62 -519 0 -520 0 5 -102z m590 -1213 c151 -44
228 -222 158 -363 -45 -90 -134 -145 -234 -145 -67 0 -115 19 -170 69 -61 56
-84 105 -84 189 -1 119 62 207 177 246 64 22 90 23 153 4z"/>
<path d="M2551 3664 c-12 -15 -21 -40 -21 -56 0 -28 6 -36 80 -103 59 -53 70
-92 70 -252 l0 -143 -50 0 c-41 0 -56 -5 -82 -29 -32 -29 -33 -32 -39 -133
-11 -162 -10 -384 1 -412 9 -24 7 -26 -28 -32 -52 -9 -90 -33 -115 -74 l-22
-35 0 -1090 c0 -1072 0 -1091 20 -1124 11 -19 33 -43 48 -55 28 -21 36 -21
650 -24 694 -3 666 -5 714 67 l23 34 0 1101 c0 1062 -1 1102 -19 1130 -24 36
-69 66 -101 66 -40 0 -54 14 -41 38 13 24 14 118 4 347 l-6 160 -33 33 c-26
26 -40 32 -77 32 l-44 0 -5 118 c-6 138 -28 200 -98 276 -78 84 -127 100 -451
146 -345 48 -351 48 -378 14z m1047 -2369 l-3 -750 -28 -47 c-18 -31 -44 -57
-75 -75 l-47 -28 -342 -3 c-217 -2 -357 1 -381 7 -63 17 -105 52 -134 110
l-28 55 0 955 0 956 500 -3 c306 -1 507 1 518 7 16 9 17 -6 20 -212 1 -122 1
-559 0 -972z"/>
<path d="M2764 1940 c-12 -4 -31 -21 -43 -36 -20 -25 -21 -37 -21 -248 0 -201
2 -224 20 -253 13 -21 31 -35 57 -42 50 -14 546 -14 596 0 25 7 45 21 58 42
18 30 19 48 17 259 l-3 228 -28 27 -27 28 -303 2 c-166 1 -312 -2 -323 -7z"/>
</g>
</svg>
