<svg xmlns="http://www.w3.org/2000/svg" width="682.667" height="682.667" version="1.0" viewBox="0 0 512 512"><path d="M442.3 15c-4 2.4-9.9 9.9-20.8 26-17.1 25.6-24.8 44-24.7 59 .2 38.5 40.8 63.3 75.9 46.5 13.5-6.5 23.4-18.6 27.8-33.9 2.3-8 1.7-21.7-1.5-30.6-5.5-15.5-21.5-42.7-35.5-60.3-6.8-8.6-14.3-10.9-21.2-6.7m33.2 62.4c1.3 1.9 1.3 2.8.4 4.7-1.5 3.3-26.1 25.1-30.1 26.7-4.8 2-9.2.7-14.3-4.2-4.7-4.5-5.6-7.4-2.9-10 2.4-2.4 5.7-1.9 8.9 1.4 1.6 1.6 3.4 3 4 3s7-5.4 14.3-12c14.2-12.8 16.8-14.1 19.7-9.6M85.3 50c-4.9 2.9-6.3 6.6-6.3 16.5V75h103.8l.6-2.3c1.1-4.2.6-12.6-1-16.7-1-2.3-2.9-4.8-4.9-6-3.1-1.9-4.8-2-46.1-2-40.8 0-43.1.1-46.1 2M79.6 90.2c.3 5.7 2.5 79.1 4.9 163.3 2.4 84.1 4.6 155.8 4.9 159.3.7 11.2 7.8 18.1 18.7 18.2h4.6l.6 11.2c.3 6.2 1.8 16.7 3.2 23.3 1.5 6.6 3.3 16.3 4.1 21.5 1.8 12 2.6 13.8 7 15.6 2.8 1.2 4.3 1.3 7 .4 4.1-1.4 5.9-4.5 6.8-12.1.3-3.1 2.1-13.4 4.1-23 1.9-9.6 3.7-21.8 4.1-27.1l.7-9.8h4.3c5.4 0 9.1-1.4 12.8-4.8 5.9-5.6 5.4 3.6 10.7-171.6 2.7-89.2 4.9-164.9 4.9-168.4V80H79.1zm59 121.3c15.1 4.4 22.8 22.2 15.8 36.3-4.5 9-13.4 14.5-23.4 14.5-6.7 0-11.5-1.9-17-6.9-6.1-5.6-8.4-10.5-8.4-18.9-.1-11.9 6.2-20.7 17.7-24.6 6.4-2.2 9-2.3 15.3-.4M255.1 145.6c-1.2 1.5-2.1 4-2.1 5.6 0 2.8.6 3.6 8 10.3 5.9 5.3 7 9.2 7 25.2V201h-5c-4.1 0-5.6.5-8.2 2.9-3.2 2.9-3.3 3.2-3.9 13.3-1.1 16.2-1 38.4.1 41.2.9 2.4.7 2.6-2.8 3.2-5.2.9-9 3.3-11.5 7.4l-2.2 3.5v109c0 107.2 0 109.1 2 112.4 1.1 1.9 3.3 4.3 4.8 5.5 2.8 2.1 3.6 2.1 65 2.4 69.4.3 66.6.5 71.4-6.7l2.3-3.4V381.6c0-106.2-.1-110.2-1.9-113-2.4-3.6-6.9-6.6-10.1-6.6-4 0-5.4-1.4-4.1-3.8s1.4-11.8.4-34.7l-.6-16-3.3-3.3c-2.6-2.6-4-3.2-7.7-3.2h-4.4l-.5-11.8c-.6-13.8-2.8-20-9.8-27.6-7.8-8.4-12.7-10-45.1-14.6-34.5-4.8-35.1-4.8-37.8-1.4m104.7 236.9-.3 75-2.8 4.7c-1.8 3.1-4.4 5.7-7.5 7.5l-4.7 2.8-34.2.3c-21.7.2-35.7-.1-38.1-.7-6.3-1.7-10.5-5.2-13.4-11l-2.8-5.5V264.5l50 .3c30.6.1 50.7-.1 51.8-.7 1.6-.9 1.7.6 2 21.2.1 12.2.1 55.9 0 97.2"/><path d="M276.4 318c-1.2.4-3.1 2.1-4.3 3.6-2 2.5-2.1 3.7-2.1 24.8 0 20.1.2 22.4 2 25.3 1.3 2.1 3.1 3.5 5.7 4.2 5 1.4 54.6 1.4 59.6 0 2.5-.7 4.5-2.1 5.8-4.2 1.8-3 1.9-4.8 1.7-25.9l-.3-22.8-2.8-2.7-2.7-2.8-30.3-.2c-16.6-.1-31.2.2-32.3.7"/></svg>