<svg xmlns="http://www.w3.org/2000/svg" width="682.667" height="682.667" version="1.0" viewBox="0 0 512 512"><path d="M368.2 12.5c-5.6 2.4-9.1 5.4-11.9 10.2-2.5 4.3-2.6 5.3-3.4 25.2-1.4 33.6-4.7 57.4-9.4 67.7l-2.3 5.2-9.8.4c-11.9.5-17 2.7-21.1 9l-2.8 4.1-.3 21.1c-.4 22.9.2 26.5 4.5 31.7 4.9 5.8 8.9 6.9 25.9 6.9h15.2l.6 14.2c.3 7.9 1.1 34.1 1.6 58.3.6 24.2 1.3 46.4 1.6 49.3.7 6.8 7.3 20 12 24.1 7.6 6.7 16.3 2.5 22.9-11.3 1.8-3.9 3.6-8.7 3.9-10.6.5-2.9 3.6-107 3.6-120.2V194h15.3c14.3 0 15.6-.2 20.3-2.5 5.6-2.8 9.3-7.6 10.5-13.8s1.1-34.8-.2-40.7c-1.2-5.7-5.3-11.1-10.3-13.7-2-1.1-6.8-1.9-13-2.2-9.9-.6-10-.6-11.8-3.7-4.9-8.4-8.3-31.1-9.9-64.8-1.2-26.6-1.9-29.7-8.4-35.4-6.8-6-16.1-7.8-23.3-4.7M96.2 179c-5.1 3.1-6.6 9.3-3.7 15 1.7 3.2 4.4 5 8.9 5.9 3.6.8 5.4 5.1 5.5 12.9.1 7.4-2.5 12-10.9 18.8-11.1 8.9-18.3 19.5-23.1 33.9l-2.4 7-.3 104.5c-.2 95.3-.1 104.9 1.4 108.9 2.1 5.5 6.6 10.6 11.8 13.4l4.1 2.2h68c64.4 0 68.2-.1 71.5-1.9 4.9-2.6 8.8-6.4 11.3-11.1l2.2-4v-212l-2.7-8c-4.7-13.7-12.2-24.5-23.5-33.5-7.6-6.1-10.3-10.9-10.2-18.2.1-7.8 1.9-12.1 5.5-12.9 8.8-1.8 12.8-9.4 8.9-16.9-3.2-6.1-2-6-63.2-6-54 0-55.9.1-59.1 2m102.4 114.7c6.7 4.8 6.5 1.9 6.2 77.2-.3 66.9-.3 68-2.4 70.7-1.1 1.5-3.3 3.7-4.8 4.8-2.7 2-3.9 2.1-42.1 2.1s-39.4-.1-42.1-2.1c-1.5-1.1-3.7-3.3-4.8-4.8-2.1-2.7-2.1-3.6-2.1-71.9v-69.2l2.4-3.4c4.3-6.1 4.6-6.1 47.6-5.8 38.6.2 39 .2 42.1 2.4M369 373.9c-8 8.4-21.3 31-23.9 40.6-3.8 13.9 2.8 28.7 16 36 4.9 2.7 6.2 3 14.9 3 8 0 10.2-.4 13.8-2.3 15.1-8.1 21.5-23.4 16.2-39.2-3.6-10.8-18.6-35.2-24.7-40-4.1-3.2-8-2.6-12.3 1.9"/></svg>