<?xml version="1.0" standalone="no"?>
<!DOCTYPE svg PUBLIC "-//W3C//DTD SVG 20010904//EN"
 "http://www.w3.org/TR/2001/REC-SVG-20010904/DTD/svg10.dtd">
<svg version="1.0" xmlns="http://www.w3.org/2000/svg"
 width="512.000000pt" height="512.000000pt" viewBox="0 0 512.000000 512.000000"
 preserveAspectRatio="xMidYMid meet">
<metadata>
Created by potrace 1.16, written by Peter Selinger 2001-2019
</metadata>
<g transform="translate(0.000000,512.000000) scale(0.100000,-0.100000)"
fill="#000000" stroke="none">
<path d="M2350 5055 c-246 -42 -485 -151 -690 -313 -233 -185 -471 -501 -539
-713 -68 -213 -70 -637 -5 -988 l15 -84 -36 -71 c-84 -165 -47 -366 95 -520
61 -66 153 -130 212 -148 52 -15 48 -24 -9 -20 -60 4 -101 -20 -145 -83 -96
-136 -169 -430 -149 -595 15 -119 46 -179 139 -270 72 -69 80 -82 114 -170 48
-127 84 -259 72 -269 -5 -4 -58 -25 -119 -45 -229 -78 -381 -167 -477 -279
-103 -119 -228 -336 -228 -394 0 -49 64 -80 103 -51 9 7 30 44 47 83 44 98
131 224 208 303 77 77 188 140 359 202 99 36 103 37 97 16 -11 -39 -111 -289
-163 -410 -28 -65 -51 -131 -51 -146 0 -49 62 -79 102 -48 20 16 175 381 230
542 38 112 40 125 35 196 -8 95 -44 225 -103 371 -90 222 -88 213 -88 349 0
114 2 133 31 215 85 247 178 488 191 492 7 3 18 1 25 -6 14 -14 -3 -191 -35
-366 -12 -66 -22 -147 -22 -180 0 -74 24 -122 130 -255 204 -255 245 -415 161
-626 -20 -49 -48 -131 -62 -183 -39 -139 -115 -472 -115 -502 0 -53 70 -79
108 -41 10 10 24 48 31 83 29 144 123 503 147 562 30 72 50 134 59 193 4 28
16 51 37 70 83 78 151 234 164 375 6 59 10 69 23 64 128 -51 252 -85 311 -85
49 0 203 39 276 70 25 11 47 20 48 20 2 0 6 -28 10 -63 15 -147 66 -272 145
-359 40 -44 51 -64 61 -113 7 -33 28 -100 47 -150 32 -85 110 -378 149 -565
10 -47 26 -92 36 -102 39 -39 108 -11 108 44 0 28 -75 358 -116 507 -14 52
-42 133 -62 180 -33 79 -36 94 -36 181 0 78 5 107 26 161 34 86 92 181 168
275 82 99 128 177 135 228 4 25 -3 95 -19 181 -35 198 -53 382 -38 397 6 6 17
8 24 5 13 -4 106 -245 191 -492 29 -82 31 -101 31 -215 0 -136 2 -127 -88
-349 -58 -143 -94 -274 -103 -367 -5 -58 -1 -85 17 -145 44 -146 223 -578 248
-597 40 -31 102 -1 102 50 0 14 -33 104 -74 199 -65 153 -146 360 -146 372 0
10 220 -77 304 -121 66 -34 109 -65 158 -114 77 -79 164 -205 208 -303 34 -78
51 -95 91 -95 31 0 59 31 59 65 0 31 -84 198 -136 274 -144 205 -272 294 -569
396 -60 21 -114 42 -118 46 -12 9 25 148 71 267 34 90 42 103 114 172 94 92
124 151 139 273 8 69 7 103 -6 179 -35 209 -105 389 -176 453 -43 39 -73 49
-124 43 -46 -5 -45 6 3 20 61 18 152 83 213 151 142 156 178 352 94 517 l-36
71 15 79 c48 253 62 636 32 829 -28 174 -65 266 -173 430 -276 419 -670 691
-1102 761 -105 17 -309 17 -411 -1z m299 -720 c126 -30 275 -123 365 -229 46
-53 64 -64 209 -130 248 -112 358 -368 386 -899 10 -203 -1 -389 -34 -552 -38
-185 -34 -176 -87 -190 -62 -16 -92 -37 -113 -80 -15 -33 -16 -52 -8 -156 l8
-120 -46 -62 c-100 -136 -298 -297 -463 -377 -103 -50 -256 -100 -306 -100
-96 0 -367 116 -495 212 -99 74 -235 208 -281 276 -38 54 -39 59 -33 112 22
171 3 242 -74 279 -24 12 -52 21 -64 21 -23 0 -32 24 -62 175 -32 159 -44 312
-38 488 4 137 19 260 33 276 2 2 10 -1 18 -8 10 -9 27 -8 72 4 85 23 309 30
469 15 153 -14 168 -10 163 44 -3 28 -10 34 -63 56 -55 22 -73 25 -210 25
-163 0 -275 -21 -383 -70 l-52 -24 11 22 c26 49 66 91 144 151 158 124 238
236 321 449 57 147 83 194 144 260 116 127 287 175 469 132z m-1267 -1480 l3
-75 -40 0 c-46 0 -57 -6 -74 -37 -22 -43 16 -93 73 -93 29 0 66 -42 66 -75 0
-13 9 -67 20 -120 11 -53 20 -101 20 -106 0 -20 -98 42 -148 93 -160 161 -159
396 2 469 70 32 74 29 78 -56z m2434 56 c164 -74 162 -311 -3 -473 -49 -47
-131 -103 -139 -95 -7 7 53 276 65 290 7 10 26 17 41 17 31 0 68 26 71 50 6
54 -17 80 -72 80 l-39 0 0 75 c0 85 4 89 76 56z m-2426 -849 c0 -5 -27 -82
-61 -172 -60 -160 -88 -271 -90 -353 l-1 -42 -10 54 c-8 41 -6 75 6 143 29
155 115 378 146 378 6 0 10 -4 10 -8z m2386 -37 c36 -63 90 -225 110 -333 12
-68 14 -102 6 -143 l-10 -54 -1 42 c-2 82 -30 193 -90 353 -34 90 -61 167 -61
172 0 21 22 4 46 -37z m-1765 -495 c52 -35 95 -64 96 -65 2 -1 -2 -41 -7 -91
-11 -94 -30 -163 -63 -229 -20 -40 -20 -40 -30 -15 -46 116 -116 238 -192 335
-122 154 -128 167 -113 254 l12 69 102 -97 c56 -54 144 -126 195 -161z m1400
82 c-10 -20 -58 -87 -106 -147 -76 -97 -146 -219 -192 -335 -10 -25 -10 -25
-30 15 -33 66 -52 135 -63 229 -5 50 -9 90 -7 91 1 1 31 21 67 45 87 58 192
145 265 219 l60 61 13 -70 c11 -64 11 -73 -7 -108z"/>
<path d="M2985 3409 c-116 -26 -152 -58 -125 -109 11 -21 15 -22 103 -13 153
14 443 9 516 -9 76 -19 93 -15 89 21 -3 22 -13 30 -74 53 -152 58 -387 84
-509 57z"/>
<path d="M1712 2972 c-35 -27 -27 -66 13 -70 17 -1 72 -24 123 -50 90 -45 96
-47 195 -50 92 -3 106 -1 147 20 37 20 46 30 48 56 4 41 -21 55 -74 40 -57
-15 -142 -3 -248 37 -105 39 -168 44 -204 17z"/>
<path d="M3200 2954 c-101 -39 -176 -51 -239 -36 -60 14 -83 2 -79 -40 2 -26
11 -36 48 -56 41 -21 55 -23 147 -20 99 3 105 5 195 50 51 26 107 49 123 50
39 4 46 37 14 67 -34 31 -105 26 -209 -15z"/>
<path d="M2423 2550 c-28 -11 -39 -53 -24 -86 15 -33 103 -74 161 -74 58 0
146 41 161 74 16 34 3 75 -26 86 -28 11 -49 5 -84 -22 -30 -23 -72 -23 -102 1
-32 25 -59 31 -86 21z"/>
<path d="M2415 2179 c-27 -5 -80 -7 -116 -3 -74 6 -93 -5 -87 -53 3 -24 11
-31 53 -45 28 -10 83 -17 125 -18 45 0 85 -6 100 -15 14 -8 45 -14 70 -14 25
0 56 6 70 14 15 9 55 15 100 15 42 1 97 8 125 18 42 14 50 21 53 45 6 48 -13
60 -83 52 -33 -3 -91 -1 -128 5 -54 8 -73 8 -102 -4 -31 -13 -39 -13 -70 0
-38 15 -39 15 -110 3z"/>
<path d="M2446 1951 c-29 -31 -18 -81 23 -105 42 -24 133 -26 177 -3 81 42 27
150 -59 118 -18 -7 -36 -7 -53 -1 -39 15 -69 12 -88 -9z"/>
</g>
</svg>
