<svg xmlns="http://www.w3.org/2000/svg" width="682.667" height="682.667" version="1.0" viewBox="0 0 512 512"><path d="M235 6.5c-24.6 4.2-48.5 15.1-69 31.3-23.3 18.5-47.1 50.1-53.9 71.3-6.8 21.3-7 63.7-.5 98.8l1.5 8.4-3.6 7.1c-8.4 16.5-4.7 36.6 9.5 52 6.1 6.6 15.3 13 21.2 14.8 5.2 1.5 4.8 2.4-.9 2-6-.4-10.1 2-14.5 8.3-9.6 13.6-16.9 43-14.9 59.5 1.5 11.9 4.6 17.9 13.9 27 7.2 6.9 8 8.2 11.4 17 4.8 12.7 8.4 25.9 7.2 26.9-.5.4-5.8 2.5-11.9 4.5-22.9 7.8-38.1 16.7-47.7 27.9C72.5 475.2 60 496.9 60 502.7c0 4.9 6.4 8 10.3 5.1.9-.7 3-4.4 4.7-8.3 4.4-9.8 13.1-22.4 20.8-30.3 7.7-7.7 18.8-14 35.9-20.2 9.9-3.6 10.3-3.7 9.7-1.6-1.1 3.9-11.1 28.9-16.3 41-2.8 6.5-5.1 13.1-5.1 14.6 0 4.9 6.2 7.9 10.2 4.8 2-1.6 17.5-38.1 23-54.2 3.8-11.2 4-12.5 3.5-19.6-.8-9.5-4.4-22.5-10.3-37.1-9-22.2-8.8-21.3-8.8-34.9 0-11.4.2-13.3 3.1-21.5 8.5-24.7 17.8-48.8 19.1-49.2.7-.3 1.8-.1 2.5.6 1.4 1.4-.3 19.1-3.5 36.6-1.2 6.6-2.2 14.7-2.2 18 0 7.4 2.4 12.2 13 25.5 20.4 25.5 24.5 41.5 16.1 62.6-2 4.9-4.8 13.1-6.2 18.3-3.9 13.9-11.5 47.2-11.5 50.2 0 5.3 7 7.9 10.8 4.1 1-1 2.4-4.8 3.1-8.3 2.9-14.4 12.3-50.3 14.7-56.2 3-7.2 5-13.4 5.9-19.3.4-2.8 1.6-5.1 3.7-7 8.3-7.8 15.1-23.4 16.4-37.5.6-5.9 1-6.9 2.3-6.4 12.8 5.1 25.2 8.5 31.1 8.5 4.9 0 20.3-3.9 27.6-7 2.5-1.1 4.7-2 4.8-2 .2 0 .6 2.8 1 6.3 1.5 14.7 6.6 27.2 14.5 35.9 4 4.4 5.1 6.4 6.1 11.3.7 3.3 2.8 10 4.7 15 3.2 8.5 11 37.8 14.9 56.5 1 4.7 2.6 9.2 3.6 10.2 3.9 3.9 10.8 1.1 10.8-4.4 0-2.8-7.5-35.8-11.6-50.7-1.4-5.2-4.2-13.3-6.2-18-3.3-7.9-3.6-9.4-3.6-18.1 0-7.8.5-10.7 2.6-16.1 3.4-8.6 9.2-18.1 16.8-27.5 8.2-9.9 12.8-17.7 13.5-22.8.4-2.5-.3-9.5-1.9-18.1-3.5-19.8-5.3-38.2-3.8-39.7.6-.6 1.7-.8 2.4-.5 1.3.4 10.6 24.5 19.1 49.2 2.9 8.2 3.1 10.1 3.1 21.5 0 13.6.2 12.7-8.8 34.9-5.8 14.3-9.4 27.4-10.3 36.7-.5 5.8-.1 8.5 1.7 14.5 4.4 14.6 22.3 57.8 24.8 59.7 4 3.1 10.2.1 10.2-5 0-1.4-3.3-10.4-7.4-19.9-6.5-15.3-14.6-36-14.6-37.2 0-1 22 7.7 30.4 12.1 6.6 3.4 10.9 6.5 15.8 11.4 7.7 7.9 16.4 20.5 20.8 30.3 3.4 7.8 5.1 9.5 9.1 9.5 3.1 0 5.9-3.1 5.9-6.5 0-3.1-8.4-19.8-13.6-27.4-14.4-20.5-27.2-29.4-56.9-39.6-6-2.1-11.4-4.2-11.8-4.6-1.2-.9 2.5-14.8 7.1-26.7 3.4-9 4.2-10.3 11.4-17.2 9.4-9.2 12.4-15.1 13.9-27.3.8-6.9.7-10.3-.6-17.9-3.5-20.9-10.5-38.9-17.6-45.3-4.3-3.9-7.3-4.9-12.4-4.3-4.6.5-4.5-.6.3-2 6.1-1.8 15.2-8.3 21.3-15.1 14.2-15.6 17.8-35.2 9.4-51.7l-3.6-7.1 1.5-7.9c4.8-25.3 6.2-63.6 3.2-82.9-2.8-17.4-6.5-26.6-17.3-43-27.6-41.9-67-69.1-110.2-76.1-10.5-1.7-30.9-1.7-41.1.1m29.9 72c12.6 3 27.5 12.3 36.5 22.9 4.6 5.3 6.4 6.4 20.9 13 24.8 11.2 35.8 36.8 38.6 89.9 1 20.3-.1 38.9-3.4 55.2-3.8 18.5-3.4 17.6-8.7 19-6.2 1.6-9.2 3.7-11.3 8-1.5 3.3-1.6 5.2-.8 15.6l.8 12-4.6 6.2c-10 13.6-29.8 29.7-46.3 37.7-10.3 5-25.6 10-30.6 10-9.6 0-36.7-11.6-49.5-21.2-9.9-7.4-23.5-20.8-28.1-27.6-3.8-5.4-3.9-5.9-3.3-11.2 2.2-17.1.3-24.2-7.4-27.9-2.4-1.2-5.2-2.1-6.4-2.1-2.3 0-3.2-2.4-6.2-17.5-3.2-15.9-4.4-31.2-3.8-48.8.4-13.7 1.9-26 3.3-27.6.2-.2 1 .1 1.8.8 1 .9 2.7.8 7.2-.4 8.5-2.3 30.9-3 46.9-1.5 15.3 1.4 16.8 1 16.3-4.4-.3-2.8-1-3.4-6.3-5.6-5.5-2.2-7.3-2.5-21-2.5-16.3 0-27.5 2.1-38.3 7l-5.2 2.4 1.1-2.2c2.6-4.9 6.6-9.1 14.4-15.1 15.8-12.4 23.8-23.6 32.1-44.9 5.7-14.7 8.3-19.4 14.4-26 11.6-12.7 28.7-17.5 46.9-13.2m-126.7 148 .3 7.5h-4c-4.6 0-5.7.6-7.4 3.7-2.2 4.3 1.6 9.3 7.3 9.3 2.9 0 6.6 4.2 6.6 7.5 0 1.3.9 6.7 2 12s2 10.1 2 10.6c0 2-9.8-4.2-14.8-9.3-16-16.1-15.9-39.6.2-46.9 7-3.2 7.4-2.9 7.8 5.6m243.4-5.6c16.4 7.4 16.2 31.1-.3 47.3-4.9 4.7-13.1 10.3-13.9 9.5-.7-.7 5.3-27.6 6.5-29 .7-1 2.6-1.7 4.1-1.7 3.1 0 6.8-2.6 7.1-5 .6-5.4-1.7-8-7.2-8H374v-7.5c0-8.5.4-8.9 7.6-5.6M139 305.8c0 .5-2.7 8.2-6.1 17.2-6 16-8.8 27.1-9 35.3l-.1 4.2-1-5.4c-.8-4.1-.6-7.5.6-14.3 2.9-15.5 11.5-37.8 14.6-37.8.6 0 1 .4 1 .8m238.6 3.7c3.6 6.3 9 22.5 11 33.3 1.2 6.8 1.4 10.2.6 14.3l-1 5.4-.1-4.2c-.2-8.2-3-19.3-9-35.3-3.4-9-6.1-16.7-6.1-17.2 0-2.1 2.2-.4 4.6 3.7M201.1 359c5.2 3.5 9.5 6.4 9.6 6.5.2.1-.2 4.1-.7 9.1-1.1 9.4-3 16.3-6.3 22.9-2 4-2 4-3 1.5-4.6-11.6-11.6-23.8-19.2-33.5-12.2-15.4-12.8-16.7-11.3-25.4l1.2-6.9 10.2 9.7c5.6 5.4 14.4 12.6 19.5 16.1m140-8.2c-1 2-5.8 8.7-10.6 14.7-7.6 9.7-14.6 21.9-19.2 33.5-1 2.5-1 2.5-3-1.5-3.3-6.6-5.2-13.5-6.3-22.9-.5-5-.9-9-.7-9.1.1-.1 3.1-2.1 6.7-4.5 8.7-5.8 19.2-14.5 26.5-21.9l6-6.1 1.3 7c1.1 6.4 1.1 7.3-.7 10.8"/><path d="M298.5 171.1c-11.6 2.6-15.2 5.8-12.5 10.9 1.1 2.1 1.5 2.2 10.3 1.3 15.3-1.4 44.3-.9 51.6.9 7.6 1.9 9.3 1.5 8.9-2.1-.3-2.2-1.3-3-7.4-5.3-15.2-5.8-38.7-8.4-50.9-5.7M171.2 214.8c-3.5 2.7-2.7 6.6 1.3 7 1.7.1 7.2 2.4 12.3 5 9 4.5 9.6 4.7 19.5 5 9.2.3 10.6.1 14.7-2 3.7-2 4.6-3 4.8-5.6.4-4.1-2.1-5.5-7.4-4-5.7 1.5-14.2.3-24.8-3.7-10.5-3.9-16.8-4.4-20.4-1.7M320 216.6c-10.1 3.9-17.6 5.1-23.9 3.6-6-1.4-8.3-.2-7.9 4 .2 2.6 1.1 3.6 4.8 5.6 4.1 2.1 5.5 2.3 14.7 2 9.9-.3 10.5-.5 19.5-5 5.1-2.6 10.7-4.9 12.3-5 3.9-.4 4.6-3.7 1.4-6.7-3.4-3.1-10.5-2.6-20.9 1.5M242.3 257c-2.8 1.1-3.9 5.3-2.4 8.6s10.3 7.4 16.1 7.4 14.6-4.1 16.1-7.4c1.6-3.4.3-7.5-2.6-8.6-2.8-1.1-4.9-.5-8.4 2.2-3 2.3-7.2 2.3-10.2-.1-3.2-2.5-5.9-3.1-8.6-2.1M241.5 294.1c-2.7.5-8 .7-11.6.3-7.4-.6-9.3.5-8.7 5.3.3 2.4 1.1 3.1 5.3 4.5 2.8 1 8.3 1.7 12.5 1.8 4.5 0 8.5.6 10 1.5 1.4.8 4.5 1.4 7 1.4s5.6-.6 7-1.4c1.5-.9 5.5-1.5 10-1.5 4.2-.1 9.7-.8 12.5-1.8 4.2-1.4 5-2.1 5.3-4.5.6-4.8-1.3-6-8.3-5.2-3.3.3-9.1.1-12.8-.5-5.4-.8-7.3-.8-10.2.4-3.1 1.3-3.9 1.3-7 0-3.8-1.5-3.9-1.5-11-.3M244.6 316.9c-2.9 3.1-1.8 8.1 2.3 10.5 4.2 2.4 13.3 2.6 17.7.3 8.1-4.2 2.7-15-5.9-11.8-1.8.7-3.6.7-5.3.1-3.9-1.5-6.9-1.2-8.8.9"/></svg>