<svg xmlns="http://www.w3.org/2000/svg" width="682.667" height="682.667" version="1.0" viewBox="0 0 512 512"><path d="M85.2 12.7c-1.9.9-4.4 3.2-5.8 5.2C77.1 21.4 77 22 77 40.7V60h-2.2c-3.4 0-8.5 3.5-10.3 6.9C63.3 69.3 63 73.8 63 90v20h146V68.1l-3.1-3.5c-1.9-2.2-4.3-3.8-6.5-4.2l-3.4-.6V42.1c0-16.3-.2-18-2.2-22.1-1.3-2.5-3.8-5.5-5.7-6.7l-3.4-2.3h-48.1c-42.5 0-48.5.2-51.4 1.7m57.3 16.8C148.1 35 144 45 136.3 45c-2.5 0-4.3-.8-6.4-2.9-3.7-3.7-3.8-7.9-.3-12 3.4-4.1 9.2-4.4 12.9-.6M280.9 61.6c-2 2.1-2.3 3.4-2.2 8.7.3 12.9 1.4 20.6 3.5 23.2l1.9 2.5h90.5c58 0 91.2-.4 92.4-1 2.9-1.6 4.1-7 4.3-20 .2-11.7.1-12.2-2.2-14.1-2.3-1.8-5-1.9-94-1.9h-91.8zM289 107.6c0 5.4 13.1 294.2 13.5 297.4 1.3 10.9 8.2 22 15.5 25l3 1.2v30.5c0 33.8.2 35.2 6.3 38.8 3 1.9 5.6 2 43.7 2.3 48.1.4 50.2.2 54.7-4.3l3.3-3.3v-32.1c0-26.3.2-32.1 1.3-32.1 2.4 0 9.5-5.8 12.2-9.9 1.5-2.1 3.3-6.1 4.1-8.8 1.4-4.2 5.9-98.4 14.6-298.1l.3-7.2h-86.2c-47.5 0-86.3.3-86.3.6m90.4 82.6c3.4 4.8 1 13.8-3.6 13.8-3.7 0-5.8-2.9-5.8-7.7 0-2.4.5-5.3 1-6.4 1.5-2.7 6.4-2.5 8.4.3M342.2 207c4.2 4.5 4.5 5.6 2.2 8.8-2.3 3.4-6.1 2.8-10-1.5s-4.3-7.5-1.2-9.7c3.4-2.4 4.7-2 9 2.4m46.1 11.3c11.9 5.4 18.7 15.2 19.5 28 .3 5.7 0 8.4-1.8 12.9-2.8 7.5-9.6 15-16.8 18.5-4.9 2.4-6.9 2.8-14.2 2.8-7.8 0-9-.3-14.8-3.4-11.3-6.1-17.5-16.4-17.5-28.6 0-11.7 5-21 14.5-27.6 9.4-6.3 20.8-7.3 31.1-2.6m-59.5 26.9c1.7 1.7 1.5 6.3-.3 7.8-2.2 1.8-8.7 2.2-11.5.8-2.8-1.5-3.7-4.7-2-7.7.9-1.8 2-2.1 6.8-2.1 3.2 0 6.3.5 7 1.2m16.1 38c1.4 2.5 1.4 2.9-.5 5.4-1.1 1.5-3.3 3.7-4.8 4.8-2.5 1.9-2.9 1.9-5.4.5-4.2-2.3-4-5.5.5-10.1q6.75-6.9 10.2-.6m71.5.8c4.1 4.5 4 4.4 2.5 7.3-2.5 4.8-4.7 4.8-9.9.1-4.3-3.9-5-6.7-2.3-9.6 2.6-2.9 5.7-2.2 9.7 2.2M379 296c2.9 2.9 2.7 9.4-.4 12.5-4.3 4.3-8.6 1-8.6-6.4 0-7.3 4.7-10.4 9-6.1m14.1 160.9c2.1 1.7 2.4 2.8 2.4 8.6 0 10.1-.7 10.5-20.3 10.5-14.6 0-15.7-.1-17.9-2.2-1.9-1.8-2.3-3.2-2.3-8.4 0-5.6.3-6.5 2.6-8.3 2.4-1.9 4-2.1 17.9-2.1 13.6 0 15.5.2 17.6 1.9M57.2 127.5c-7.6 8.1-12.7 17-15.2 27-2 7.7-2 11.2-2 168.4v160.6l2.4 5c2.5 5.4 7 9.8 12.6 12.4 3.1 1.4 12.1 1.6 80.5 1.6 62.7 0 77.7-.3 80.9-1.4 5.1-1.8 11.5-7.6 13.7-12.6 1.8-3.8 1.9-11.4 1.9-165.9 0-179.3.5-166.8-6.6-180.8-2-3.9-6.2-9.7-10-13.8l-6.6-7H63.2zm82.2 102.8c1.1.8 2 3.1 2.3 6 .7 5.7-1.5 9.7-5.2 9.7-3.8 0-5.5-2.5-5.5-8.2 0-7.5 3.8-10.9 8.4-7.5m-41.9 19.8c4.4 3.9 5.4 7.3 3 9.9-2.7 2.9-5.5 2.4-9.7-1.7s-5.1-8.5-2-10.2c2.9-1.7 5-1.2 8.7 2m87-1.1c2.4 2.6 1.4 6-3 9.9-4.2 3.7-7.8 4-9.9.9-2.2-3.1-2.1-3.3 2.5-8.3 4.6-4.9 7.5-5.7 10.4-2.5M150 262.3c7.8 2.9 17.8 13 21 21.2 3.1 8 3.1 18.7 0 26.7-2.8 7.6-10.5 16-18.4 20.1-5.7 2.9-6.8 3.2-16.1 3.2-8.8 0-10.7-.3-15.7-2.7-7.9-3.7-14.2-9.8-18.1-17.7-2.9-6-3.2-7.4-3.2-16.1 0-8.2.4-10.3 2.7-15.2 8.6-18.5 28.5-26.6 47.8-19.5M82.5 294c2 1.7 1.9 6.4-.2 8.1-.9.8-3.7 1.4-6.3 1.4-9.5 0-12.2-7.5-4-10.8 2.2-.9 8.9-.1 10.5 1.3m118.9-1c3 1.1 4.3 4.9 2.7 7.9-2.2 4-13.1 3.9-15.2-.1-3.3-6.1 4.4-10.9 12.5-7.8m-101.2 42.7c2.7 2.4 2.2 4.8-1.8 9.3-4.3 4.7-8.3 5.4-10.8 1.8-2.2-3.1-2.1-3.3 2.5-8.3 4.4-4.8 7.1-5.5 10.1-2.8m82.2 2.3c4 4.5 4.3 5.6 2 8.8-2.4 3.5-5.6 2.8-10.3-2.3-4.6-5-4.7-5.2-2.5-8.3 2.5-3.6 6.5-2.9 10.8 1.8m-42 14.2c1.8 2.5 2.1 7.4.6 11.2-1.2 3.4-5.4 4.4-8 2.1s-2.8-11.5-.4-13.9c2.2-2.3 6-2 7.8.6"/></svg>